<?xml version="1.0" standalone="no"?>
<!DOCTYPE svg PUBLIC "-//W3C//DTD SVG 20010904//EN"
 "http://www.w3.org/TR/2001/REC-SVG-20010904/DTD/svg10.dtd">
<svg version="1.0" xmlns="http://www.w3.org/2000/svg"
 width="134.000000pt" height="134.000000pt" viewBox="0 0 134.000000 134.000000"
 preserveAspectRatio="xMidYMid meet">
<metadata>
Created by potrace 1.14, written by Peter Selinger 2001-2017
</metadata>
<g transform="translate(0.000000,134.000000) scale(0.100000,-0.100000)"
fill="#000000" stroke="none">
<path d="M803 915 c-18 -8 -33 -11 -33 -8 0 3 -6 0 -13 -6 -8 -6 -17 -8 -20
-4 -4 3 -7 1 -7 -5 0 -13 13 -16 24 -5 3 4 12 8 19 10 75 17 71 18 54 -8 -27
-43 -29 -77 -7 -99 11 -11 27 -21 35 -21 24 -2 29 -4 50 -16 19 -12 19 -12 -3
-13 -16 0 -21 -4 -16 -12 4 -7 4 -10 -1 -6 -4 4 -29 -1 -56 -12 -27 -10 -46
-14 -43 -8 4 6 -2 5 -14 -1 -12 -6 -32 -12 -46 -13 -15 -1 -26 -5 -26 -8 0 -3
-10 -6 -22 -7 -12 -1 -27 -8 -34 -15 -11 -11 4 -14 86 -15 55 0 98 2 96 6 -2
3 6 6 19 6 13 0 21 -3 19 -6 -5 -9 79 -5 94 4 6 5 12 5 12 0 0 -4 14 -8 30 -9
17 -1 30 3 30 9 0 5 7 4 15 -3 12 -10 15 -10 15 1 0 11 2 11 10 -1 5 -8 10
-10 10 -4 0 8 11 9 35 4 21 -5 38 -4 41 2 3 5 11 5 19 -2 8 -7 15 -7 19 -1 6
9 50 6 69 -6 6 -4 7 -1 2 7 -6 10 -4 12 8 7 9 -3 19 -2 22 3 5 8 -40 16 -67
11 -5 0 -8 4 -8 10 0 5 -4 8 -10 4 -25 -15 -190 103 -190 136 0 6 -4 7 -10 4
-5 -3 -10 -1 -10 6 0 7 -20 32 -44 54 -49 47 -95 55 -153 30z"/>
<path d="M460 910 c-19 -4 -31 -8 -26 -9 6 0 1 -7 -9 -15 -19 -14 -15 -48 6
-44 24 6 18 -19 -12 -48 -58 -55 -65 -60 -77 -56 -7 2 -12 -1 -12 -7 0 -6 9
-11 20 -11 11 0 20 5 20 10 0 6 9 10 20 10 11 0 47 11 80 24 33 14 60 23 60
20 0 -2 16 5 35 16 20 11 43 20 53 21 10 0 12 3 4 6 -6 2 -10 9 -6 14 3 5 -1
9 -9 9 -8 0 -25 10 -39 23 -25 22 -65 48 -70 46 -2 -1 -19 -5 -38 -9z"/>
<path d="M684 865 c-10 -8 -14 -15 -7 -15 6 0 15 5 18 11 4 6 14 8 22 5 8 -3
11 -1 8 4 -8 14 -18 13 -41 -5z"/>
<path d="M295 851 c-3 -5 -2 -12 3 -15 5 -3 9 1 9 9 0 17 -3 19 -12 6z"/>
<path d="M641 851 c-8 -5 -9 -11 -3 -15 5 -3 12 1 16 9 6 17 6 18 -13 6z"/>
<path d="M188 803 c7 -3 16 -2 19 1 4 3 -2 6 -13 5 -11 0 -14 -3 -6 -6z"/>
<path d="M30 759 c0 -5 5 -7 10 -4 6 3 10 8 10 11 0 2 -4 4 -10 4 -5 0 -10 -5
-10 -11z"/>
<path d="M276 713 c-4 -5 -17 -8 -29 -8 -12 -1 -27 -4 -34 -8 -6 -4 -25 -9
-43 -11 -17 -2 -33 -6 -36 -9 -9 -9 61 -1 77 8 7 5 25 9 39 10 29 1 75 24 49
25 -9 0 -19 -3 -23 -7z"/>
<path d="M1313 653 c0 -9 4 -10 14 -2 7 6 13 12 13 14 0 1 -6 2 -13 2 -8 0
-14 -6 -14 -14z"/>
<path d="M32 466 c-7 -10 -8 -48 -3 -95 1 -15 15 -7 17 10 1 5 2 13 3 18 0 5
13 11 29 13 21 2 28 9 30 29 3 24 -1 27 -33 31 -20 2 -39 -1 -43 -6z m58 -26
c0 -5 -2 -10 -4 -10 -2 0 -11 -3 -19 -6 -8 -3 -17 2 -20 10 -5 12 0 16 18 16
14 0 25 -4 25 -10z"/>
<path d="M578 469 c-15 -4 -29 -4 -32 -1 -3 3 -6 2 -6 -2 0 -3 10 -10 23 -15
19 -8 23 -15 21 -45 -2 -19 1 -38 6 -41 10 -6 14 19 10 63 -1 14 4 22 14 22 9
0 16 4 16 9 0 14 -23 19 -52 10z"/>
<path d="M908 469 c-10 -6 -16 -21 -16 -39 1 -18 5 -27 12 -23 6 4 5 -1 -3
-11 -13 -15 -13 -19 -1 -26 8 -5 17 -7 21 -4 4 2 9 -1 11 -7 3 -8 10 -6 21 5
9 10 17 14 17 9 0 -4 4 -2 9 6 11 18 3 41 -14 41 -7 0 -16 6 -18 13 -3 7 -6 5
-6 -6 -1 -10 6 -20 14 -23 13 -5 12 -8 -1 -22 -13 -12 -17 -13 -24 -2 -4 7 -6
19 -3 27 3 7 0 20 -7 28 -11 13 -8 15 19 15 17 0 31 5 31 11 0 6 -6 9 -14 6
-7 -3 -17 -2 -22 3 -5 5 -16 5 -26 -1z"/>
<path d="M1213 465 c0 -8 6 -16 14 -16 7 -1 19 -2 26 -3 6 -1 20 2 31 7 15 7
16 11 5 18 -7 4 -19 4 -25 -2 -8 -7 -14 -6 -17 3 -4 10 -6 10 -6 -1 -1 -10 -4
-11 -14 -2 -10 8 -14 7 -14 -4z"/>
<path d="M190 458 c0 -7 7 -22 15 -32 19 -25 19 -36 0 -36 -19 0 -19 -16 0
-24 15 -5 45 28 45 51 0 7 5 13 10 13 6 0 10 9 10 20 0 11 -4 20 -10 20 -5 0
-10 -5 -10 -11 0 -6 -6 -17 -14 -24 -12 -12 -15 -11 -20 10 -7 26 -26 35 -26
13z"/>
<path d="M359 461 c11 -7 11 -9 0 -13 -12 -4 -11 -8 1 -23 10 -12 10 -16 2
-11 -9 6 -12 1 -10 -18 4 -27 17 -47 19 -28 1 7 3 17 4 22 1 6 3 15 4 20 0 6
12 3 26 -6 22 -14 25 -15 25 -1 0 9 -9 19 -20 22 -11 3 -20 12 -20 20 0 7 -7
16 -16 19 -23 9 -31 7 -15 -3z"/>
<path d="M436 451 c-15 -17 -15 -19 1 -32 14 -12 16 -12 8 0 -5 9 -4 12 2 8
11 -7 11 -36 0 -53 -3 -6 0 -11 8 -11 8 0 12 4 9 9 -3 4 -2 8 3 8 4 0 8 16 8
35 0 19 -4 35 -8 35 -5 0 -5 5 -2 10 11 17 -11 11 -29 -9z"/>
<path d="M719 463 c-6 -51 -5 -93 4 -93 6 0 23 14 39 32 27 31 33 28 29 -14
-1 -9 3 -19 9 -23 5 -3 11 2 11 12 3 32 -1 86 -5 90 -2 3 -17 -9 -32 -26 -15
-17 -32 -31 -38 -31 -6 0 -4 5 4 10 11 7 12 10 2 10 -9 0 -11 7 -7 20 4 11 2
20 -4 20 -6 0 -11 -3 -12 -7z"/>
<path d="M1057 450 c-3 -11 0 -20 5 -20 6 0 5 -6 -2 -15 -7 -9 -8 -15 -2 -15
5 0 8 -9 5 -19 -3 -14 0 -19 11 -17 23 3 32 16 17 25 -17 11 -4 34 15 27 7 -3
16 -1 19 4 5 9 -15 15 -37 11 -5 0 -8 4 -8 9 0 6 11 10 25 10 38 0 30 16 -9
18 -26 2 -35 -2 -39 -18z"/>
<path d="M1249 439 c-7 -27 -4 -69 5 -72 13 -5 16 56 3 69 -4 4 -7 5 -8 3z"/>
<path d="M1107 377 c-3 -9 1 -18 9 -21 16 -6 18 2 5 22 -7 11 -9 11 -14 -1z"/>
</g>
</svg>
